<?xml version="1.0" standalone="no"?>
<!DOCTYPE svg PUBLIC "-//W3C//DTD SVG 20010904//EN"
 "http://www.w3.org/TR/2001/REC-SVG-20010904/DTD/svg10.dtd">
<svg version="1.0" xmlns="http://www.w3.org/2000/svg"
 width="225.000000pt" height="225.000000pt" viewBox="0 0 225.000000 225.000000"
 preserveAspectRatio="xMidYMid meet">

<g transform="translate(0.000000,225.000000) scale(0.100000,-0.100000)"
fill="#000000" stroke="none">
<path d="M660 2195 c-292 -60 -482 -236 -562 -521 -22 -76 -23 -95 -23 -509 0
-411 1 -434 22 -511 38 -142 84 -227 177 -332 38 -42 66 -44 37 -3 -23 32 -27
51 -10 51 7 0 8 7 4 17 -12 32 -10 38 10 38 26 1 83 14 117 27 22 8 35 7 62
-6 19 -9 47 -17 63 -18 15 -1 34 -6 40 -11 7 -5 20 -7 28 -3 8 3 15 2 15 -3 0
-13 106 -30 230 -36 187 -9 250 -17 250 -29 0 -7 13 -13 30 -14 28 -2 85 -33
123 -66 9 -9 19 -16 22 -16 11 0 75 -72 70 -80 -3 -4 -24 -12 -48 -16 -33 -5
-38 -8 -22 -14 17 -6 15 -8 -15 -15 -19 -5 -38 -8 -42 -7 -5 1 -8 -3 -8 -10 0
-15 295 -3 387 16 266 57 459 244 535 521 21 77 22 98 23 510 0 416 -1 433
-23 513 -71 261 -240 437 -492 513 -72 22 -91 23 -505 25 -330 2 -445 0 -495
-11z m930 -303 c144 -48 235 -147 277 -302 14 -56 17 -116 17 -420 0 -378 -5
-431 -48 -526 -48 -104 -125 -173 -241 -216 -57 -21 -79 -22 -434 -26 -407 -4
-463 1 -565 47 -67 31 -141 102 -175 169 -46 90 -53 142 -58 442 -6 331 5 508
37 593 29 77 92 154 160 195 109 65 158 71 595 68 350 -2 374 -3 435 -24z
m-1310 -1497 c0 -8 -4 -15 -10 -15 -5 0 -10 7 -10 15 0 8 5 15 10 15 6 0 10
-7 10 -15z"/>
<path d="M830 1781 c-162 -11 -238 -49 -285 -142 -38 -73 -45 -151 -45 -474 0
-403 11 -466 92 -541 83 -79 135 -86 578 -81 405 4 406 4 487 82 85 83 88 100
88 535 0 316 -2 372 -17 420 -31 99 -87 154 -188 184 -64 19 -517 30 -710 17z
m740 -136 c85 -44 56 -165 -40 -165 -74 0 -116 79 -74 138 28 41 69 50 114 27z
m-288 -127 c116 -53 207 -172 226 -293 43 -273 -204 -507 -469 -445 -154 36
-271 160 -300 316 -35 188 92 388 280 441 74 21 195 12 263 -19z"/>
<path d="M1045 1403 c-50 -13 -119 -72 -147 -127 -111 -216 127 -451 343 -338
233 121 146 476 -115 471 -34 -1 -70 -4 -81 -6z"/>
<path d="M1185 100 c-3 -5 -1 -10 4 -10 6 0 11 5 11 10 0 6 -2 10 -4 10 -3 0
-8 -4 -11 -10z"/>
</g>
</svg>
